<svg viewBox="0 0 39 16" xmlns="http://www.w3.org/2000/svg">
  <path fill="#69F" d="M 9.762 7.85 L 9.762 16 L 4.052 16 L 4.052 7.85 L 0 7.85 L 0 4.073 L 13.814 4.073 L 13.814 7.85 Z M 31.099 4.073 L 36.809 4.073 L 36.809 16 L 31.099 16 Z M 15.545 4.081 L 15.717 4.081 L 15.717 4.073 L 29.359 4.073 L 29.359 7.847 L 21.265 7.847 L 21.265 8.225 L 29.359 8.225 L 29.359 12 L 21.265 12 L 21.265 15.993 L 21.184 15.993 L 21.184 16 L 15.545 16 Z"/>
  <path fill="#FFDC4F" d="M 31.069 5.254 L 30.948 0.755 C 32.261 5.673 35.331 1.197 35.464 -0.4 C 35.1 1.526 35.568 6.407 39 2.728 L 36.821 6.734 L 31.069 5.254 Z"/>
</svg>